<svg width="32" height="32" viewBox="0 0 32 32" xmlns="http://www.w3.org/2000/svg">
  <!-- Dark background circle -->
  <circle cx="16" cy="16" r="16" fill="#1a1a1a"/>
  
  <!-- White border for contrast -->
  <circle cx="16" cy="16" r="15" fill="none" stroke="#ffffff" stroke-width="1"/>
  
  <!-- Modern "S" for Sweeny AI -->
  <path d="M10 12 Q16 8 22 12 Q20 14 16 14 Q12 14 10 16 Q12 18 16 18 Q20 18 22 20 Q16 24 10 20 Q12 18 16 18" 
        fill="#8B5CF6" 
        stroke="#ffffff" 
        stroke-width="0.5"/>
  
  <!-- Inner highlight -->
  <path d="M12 13 Q16 10 20 13 Q18 15 16 15 Q14 15 12 16 Q14 17 16 17 Q18 17 20 19 Q16 22 12 19" 
        fill="#A855F7" 
        opacity="0.8"/>
</svg>
