<svg width="32" height="32" viewBox="0 0 32 32" xmlns="http://www.w3.org/2000/svg">
  <defs>
    <linearGradient id="grad1" x1="0%" y1="0%" x2="100%" y2="100%">
      <stop offset="0%" style="stop-color:#8B5CF6;stop-opacity:1" />
      <stop offset="100%" style="stop-color:#A855F7;stop-opacity:1" />
    </linearGradient>
  </defs>
  
  <!-- Background circle -->
  <circle cx="16" cy="16" r="15" fill="#1a1a1a" stroke="#ffffff" stroke-width="1"/>
  
  <!-- Stylized "S" for Sweeny -->
  <path d="M11 10 Q16 8 21 10 Q19 12 16 12 Q13 12 11 14 Q13 16 16 16 Q19 16 21 18 Q16 20 11 18 Q13 16 16 16 Q19 16 21 14" 
        fill="none" 
        stroke="#ffffff" 
        stroke-width="2" 
        stroke-linecap="round"/>
  
  <!-- Modern "S" shape -->
  <path d="M12 11 C14 9, 18 9, 20 11 C18 13, 14 13, 16 15 C18 17, 18 19, 16 21 C14 19, 10 19, 12 17" 
        fill="#ffffff" 
        opacity="0.9"/>
</svg>
